<svg xmlns="http://www.w3.org/2000/svg" viewBox="0 0 1200 630" width="1200" height="630">
  <defs>
    <linearGradient id="bg" x1="0" y1="0" x2="1" y2="1">
      <stop offset="0" stop-color="#faf9f7"/>
      <stop offset="1" stop-color="#edeae3"/>
    </linearGradient>
    <linearGradient id="accent" x1="0" y1="0" x2="1" y2="0">
      <stop offset="0" stop-color="#3d9b8f"/>
      <stop offset="1" stop-color="#2a7a70"/>
    </linearGradient>
  </defs>
  <rect width="1200" height="630" fill="url(#bg)"/>
  <g transform="translate(80,110)">
    <text x="0" y="0" font-family="Inter, system-ui, sans-serif" font-size="84" font-weight="700" fill="#1c1c1e">
      Static Analyzer
    </text>
    <text x="0" y="100" font-family="Inter, system-ui, sans-serif" font-size="84" font-weight="700" fill="url(#accent)">
      Factory
    </text>
    <text x="0" y="190" font-family="Inter, system-ui, sans-serif" font-size="36" font-weight="500" fill="#4a4a4e">
      Build program analysis tools. Understand code deeply.
    </text>
    <text x="0" y="250" font-family="JetBrains Mono, ui-monospace, monospace" font-size="26" fill="#6a6a6e">
      Rust + WebAssembly · Browser-based · Pointer / Value-flow / Taint
    </text>
    <g transform="translate(0,330)" font-family="Inter, system-ui, sans-serif" font-size="24" fill="#3d9b8f">
      <rect x="0" y="-32" width="220" height="52" rx="26" fill="#3d9b8f"/>
      <text x="110" y="2" text-anchor="middle" fill="#faf9f7" font-weight="600">Playground</text>
      <rect x="244" y="-32" width="220" height="52" rx="26" fill="none" stroke="#3d9b8f" stroke-width="2"/>
      <text x="354" y="2" text-anchor="middle" fill="#3d9b8f" font-weight="600">Docs</text>
      <rect x="488" y="-32" width="220" height="52" rx="26" fill="none" stroke="#3d9b8f" stroke-width="2"/>
      <text x="598" y="2" text-anchor="middle" fill="#3d9b8f" font-weight="600">Tutorials</text>
    </g>
  </g>
  <g transform="translate(820,160)" stroke="#3d9b8f" stroke-width="3" fill="#faf9f7">
    <line x1="140" y1="40" x2="60" y2="130"/>
    <line x1="140" y1="40" x2="220" y2="130"/>
    <line x1="60" y1="170" x2="60" y2="260"/>
    <line x1="220" y1="170" x2="220" y2="260"/>
    <line x1="60" y1="300" x2="140" y2="380"/>
    <line x1="220" y1="300" x2="140" y2="380"/>
    <rect x="105" y="0" width="70" height="40" rx="8"/>
    <rect x="25" y="130" width="70" height="40" rx="8"/>
    <rect x="185" y="130" width="70" height="40" rx="8"/>
    <rect x="25" y="260" width="70" height="40" rx="8"/>
    <rect x="185" y="260" width="70" height="40" rx="8" stroke="#c75050"/>
    <rect x="105" y="380" width="70" height="40" rx="8"/>
    <g font-family="JetBrains Mono, ui-monospace, monospace" font-size="16" fill="#1c1c1e" stroke="none">
      <text x="140" y="25" text-anchor="middle">entry</text>
      <text x="60" y="155" text-anchor="middle">bb1</text>
      <text x="220" y="155" text-anchor="middle">bb2</text>
      <text x="60" y="285" text-anchor="middle">bb3</text>
      <text x="220" y="285" text-anchor="middle" fill="#c75050">bug</text>
      <text x="140" y="405" text-anchor="middle">exit</text>
    </g>
  </g>
</svg>
